<?xml version="1.0" encoding="UTF-8" standalone="no"?>
<svg width="507px" height="639px" viewBox="0 0 507 639" version="1.1" xmlns="http://www.w3.org/2000/svg" xmlns:xlink="http://www.w3.org/1999/xlink" xmlns:sketch="http://www.bohemiancoding.com/sketch/ns">
    <!-- Generator: Sketch 3.3.2 (12043) - http://www.bohemiancoding.com/sketch -->
    <title>Group Copy 3</title>
    <desc>Created with Sketch.</desc>
    <defs></defs>
    <g id="Page-1" stroke="none" stroke-width="1" fill="none" fill-rule="evenodd" sketch:type="MSPage">
        <g id="Group-Copy-3" sketch:type="MSLayerGroup" transform="translate(1.000000, 2.000000)">
            <path d="M159,31.296551 L159,611.656574" id="Line" stroke="#353535" stroke-width="6" stroke-linecap="square" sketch:type="MSShapeGroup" transform="translate(159.000000, 321.476562) scale(-1, 1) translate(-159.000000, -321.476562) "></path>
            <path d="M194,54 L194,592.999981" id="Line-Copy-4" stroke="#353535" stroke-width="6" stroke-linecap="square" sketch:type="MSShapeGroup"></path>
            <path d="M229,1 L229,611.656574" id="Line-Copy-5" stroke="#353535" stroke-width="6" stroke-linecap="square" sketch:type="MSShapeGroup"></path>
            <path d="M264,31.296551 L264,634" id="Line-Copy-6" stroke="#353535" stroke-width="6" stroke-linecap="square" sketch:type="MSShapeGroup"></path>
            <path d="M299,15 L299,596" id="Line-Copy-7" stroke="#353535" stroke-width="6" stroke-linecap="square" sketch:type="MSShapeGroup"></path>
            <path d="M336,31.296551 L336,596" id="Line-Copy-8" stroke="#353535" stroke-width="6" stroke-linecap="square" sketch:type="MSShapeGroup"></path>
            <circle id="Oval-1" fill="#353535" sketch:type="MSShapeGroup" cx="243.5" cy="323.5" r="177.5"></circle>
            <circle id="Oval-1-Copy" stroke="#FFFFFF" stroke-width="10" sketch:type="MSShapeGroup" cx="247" cy="326" r="180"></circle>
            <circle id="Oval-1-Copy-2" stroke="#353535" stroke-width="10" sketch:type="MSShapeGroup" cx="244.5" cy="324.5" r="187.5"></circle>
            <path d="M148,381 L185.68,204.36 L148,204.36 L95.44,342.6 L95.44,204.36 C90.16,202.68 84.4,201.96 78.88,201.96 C41.44,201.96 0.88,234.12 0.88,263.4 C0.88,280.68 10,286.68 26.56,286.68 C26.32,284.52 23.2,282.6 23.2,270.36 C23.2,242.76 37.84,223.8 61.84,216.12 L8.08,381 L27.28,381 L58.96,278.52 L58.96,381 L91.84,381 L137.44,267.48 L113.44,381 L148,381 Z M254.56,261 L253.12,267.24 C248.8,263.64 242.8,261.24 237.04,261.24 C189.04,261.24 174.16,310.68 174.16,351.96 C174.16,366.12 180.88,382.44 203.92,382.44 C218.56,382.44 229.36,372.6 236.56,362.76 C239.68,375.24 250.24,381 265.84,381 C284.56,381 311.68,349.08 322.72,338.04 L314.56,338.04 C304.96,345.72 292.48,359.16 282.88,359.16 C273.28,359.16 270.88,355.32 270.88,350.04 C270.88,347.88 271.36,345.24 271.84,342.6 L289.12,261 L254.56,261 Z M238.96,274.68 C242.32,274.68 246.88,275.64 250.72,279 L237.28,342.6 C236.56,345.48 236.08,348.12 235.84,350.52 C231.28,357.24 226,362.52 220.48,362.52 C214.48,362.52 206.56,359.88 206.56,345.48 C206.56,312.84 220.96,274.68 238.96,274.68 L238.96,274.68 Z M314.32,261 L288.88,381 L323.44,381 L343.36,286.92 C348.88,281.88 352.72,279.24 359.92,279.24 C367.12,279.24 360.4,295.08 373.84,295.08 C385.6,295.08 391.84,284.76 391.84,276.36 C391.84,267.24 385.36,261 374.56,261 C364.48,261 354.88,266.28 346.24,273 L348.88,261 L314.32,261 Z M476.08,261 C476.08,260.76 448.24,282.6 430.48,296.76 L448.24,213 L412.72,217.8 L377.92,381 L412.48,381 L426.4,315.96 C431.2,312.6 435.52,310.92 441.28,310.92 C448.72,310.92 452.08,318.12 452.08,325.8 C452.08,327.72 451.84,329.64 451.6,331.32 L449.2,342.6 C448.24,346.68 447.76,350.76 447.76,354.6 C447.76,369.72 455.2,381 472.24,381 C480.4,381 490.48,379.56 497.2,358.92 C495.28,359.64 492.64,359.64 490.96,359.64 C483.76,359.64 481.84,356.76 481.84,352.68 C481.84,349.56 483.04,345.96 483.76,342.6 L486.88,328.68 C487.36,326.76 487.6,324.84 487.6,323.16 C487.6,307.32 472.96,292.92 459.76,292.92 C457.84,292.92 456.16,293.16 454.24,293.4 L502,261 L476.08,261 Z" id="Mark" stroke="#FFFFFF" stroke-width="2.5" fill="#BB444A" sketch:type="MSShapeGroup"></path>
            <rect id="Rectangle-1" fill="#BB444A" sketch:type="MSShapeGroup" transform="translate(310.983556, 353.213168) rotate(12.000000) translate(-310.983556, -353.213168) " x="296.483556" y="330.796846" width="29" height="44.8326437"></rect>
            <path d="M293.5,359.5 L291.5,366.5" id="Line" stroke="#BB444A" stroke-width="3.5" stroke-linecap="square" sketch:type="MSShapeGroup"></path>
            <rect id="Rectangle-3" fill="#BB444A" sketch:type="MSShapeGroup" transform="translate(294.667969, 357.073242) rotate(-31.000000) translate(-294.667969, -357.073242) " x="291.167969" y="356.073242" width="7" height="2"></rect>
            <rect id="Rectangle-4" fill="#BB444A" sketch:type="MSShapeGroup" transform="translate(297.000000, 353.500000) rotate(10.000000) translate(-297.000000, -353.500000) " x="296" y="351" width="2" height="5"></rect>
            <rect id="Rectangle-2" fill="#BB444A" sketch:type="MSShapeGroup" x="292.5" y="366" width="3" height="4"></rect>
            <path d="M130.107422,423.953125 L130.107422,410.839844 C130.107422,408.800771 130.614253,407.236334 131.62793,406.146484 C132.641607,405.056635 134.106436,404.511719 136.022461,404.511719 C137.938486,404.511719 139.400386,405.056635 140.408203,406.146484 C141.416021,407.236334 141.919922,408.800771 141.919922,410.839844 L141.919922,413.300781 L138.175781,413.300781 L138.175781,410.59375 C138.175781,408.941398 137.493171,408.115234 136.12793,408.115234 C134.762688,408.115234 134.080078,408.941398 134.080078,410.59375 L134.080078,424.199219 C134.080078,425.828133 134.765618,426.648437 136.136719,426.660156 C137.496101,426.660156 138.175781,425.839852 138.175781,424.199219 L138.175781,419.558594 L136.382812,419.558594 L136.382812,415.955078 L141.919922,415.955078 L141.919922,423.953125 C141.919922,425.992198 141.416021,427.556635 140.408203,428.646484 C139.400386,429.736334 137.938486,430.28125 136.022461,430.28125 C134.106436,430.28125 132.641607,429.736334 131.62793,428.646484 C130.614253,427.556635 130.107422,425.992198 130.107422,423.953125 L130.107422,423.953125 Z M152.46875,430 L152.46875,404.792969 L158.445312,404.792969 C160.484385,404.792969 161.972652,405.267573 162.910156,406.216797 C163.847661,407.16602 164.316406,408.62499 164.316406,410.59375 L164.316406,412.580078 C164.316406,415.169935 163.449227,416.874996 161.714844,417.695312 C163.472665,418.433597 164.351562,420.220689 164.351562,423.056641 L164.351562,426.941406 L164.351562,427.099609 C164.351562,428.388678 164.492186,429.355466 164.773438,430 L160.748047,430 C160.513671,429.285153 160.390625,428.253913 160.378906,426.90625 L160.378906,422.951172 C160.378906,421.802729 160.17676,420.979495 159.772461,420.481445 C159.368162,419.983396 158.708989,419.734375 157.794922,419.734375 L156.423828,419.734375 L156.423828,430 L152.46875,430 Z M156.423828,416.148438 L157.970703,416.148438 C158.767582,416.148438 159.362303,415.943361 159.754883,415.533203 C160.147463,415.123045 160.34375,414.437505 160.34375,413.476562 L160.34375,410.998047 C160.355469,409.263663 159.687507,408.396484 158.339844,408.396484 L156.423828,408.396484 L156.423828,416.148438 Z M174.759766,423.988281 L174.759766,404.792969 L178.714844,404.792969 L178.714844,424.234375 C178.726563,425.875008 179.412103,426.695312 180.771484,426.695312 C182.142585,426.695312 182.822266,425.875008 182.810547,424.234375 L182.810547,404.792969 L186.554688,404.792969 L186.554688,423.988281 C186.554688,426.027354 186.050786,427.591791 185.042969,428.681641 C184.035151,429.77149 182.573252,430.316406 180.657227,430.316406 C178.741201,430.316406 177.279302,429.77149 176.271484,428.681641 C175.263667,427.591791 174.759766,426.027354 174.759766,423.988281 L174.759766,423.988281 Z M197.226562,430 L197.226562,404.792969 L202.183594,404.792969 L206.261719,419.892578 L206.261719,404.792969 L209.794922,404.792969 L209.794922,430 L205.716797,430 L200.794922,411.753906 L200.794922,430 L197.226562,430 Z M220.625,430 L220.625,404.792969 L226.882812,404.792969 C230.820332,404.792969 232.789062,406.873026 232.789062,411.033203 L232.789062,423.777344 C232.789062,427.925802 230.820332,430 226.882812,430 L220.625,430 Z M224.580078,426.396484 L226.8125,426.396484 C228.160163,426.396484 228.833984,425.582039 228.833984,423.953125 L228.833984,410.839844 C228.833984,409.210929 228.160163,408.396484 226.8125,408.396484 L224.580078,408.396484 L224.580078,426.396484 Z M243.302734,430 L243.302734,404.792969 L247.257812,404.792969 L247.257812,415.603516 L251.757812,415.603516 L251.757812,404.792969 L255.800781,404.792969 L255.800781,430 L251.757812,430 L251.757812,419.207031 L247.257812,419.207031 L247.257812,430 L243.302734,430 Z M266.332031,423.953125 L266.332031,410.839844 C266.332031,408.824209 266.850581,407.265631 267.887695,406.164062 C268.92481,405.062494 270.413076,404.511719 272.352539,404.511719 C274.292002,404.511719 275.780268,405.062494 276.817383,406.164062 C277.854497,407.265631 278.373047,408.824209 278.373047,410.839844 L278.373047,423.953125 C278.373047,425.96876 277.854497,427.527338 276.817383,428.628906 C275.780268,429.730474 274.292002,430.28125 272.352539,430.28125 C270.413076,430.28125 268.92481,429.730474 267.887695,428.628906 C266.850581,427.527338 266.332031,425.96876 266.332031,423.953125 L266.332031,423.953125 Z M270.304688,424.199219 C270.316406,425.851571 271.001946,426.683594 272.361328,426.695312 C273.732429,426.695312 274.412109,425.86329 274.400391,424.199219 L274.400391,410.59375 C274.400391,408.941398 273.71778,408.115234 272.352539,408.115234 C270.987298,408.115234 270.304688,408.941398 270.304688,410.59375 L270.304688,424.199219 Z M288.921875,430 L288.921875,404.792969 L299.714844,404.792969 L299.714844,408.396484 L292.876953,408.396484 L292.876953,415.427734 L298.308594,415.427734 L298.308594,419.013672 L292.876953,419.013672 L292.876953,426.396484 L299.714844,426.396484 L299.714844,430 L288.921875,430 Z M310.158203,430 L310.158203,404.792969 L320.634766,404.792969 L320.634766,408.396484 L314.113281,408.396484 L314.113281,415.990234 L319.228516,415.990234 L319.228516,419.59375 L314.113281,419.59375 L314.113281,430 L310.158203,430 Z M330.533203,430 L330.533203,404.792969 L341.326172,404.792969 L341.326172,408.396484 L334.488281,408.396484 L334.488281,415.427734 L339.919922,415.427734 L339.919922,419.013672 L334.488281,419.013672 L334.488281,426.396484 L341.326172,426.396484 L341.326172,430 L330.533203,430 Z M351.769531,430 L351.769531,404.792969 L357.746094,404.792969 C359.785166,404.792969 361.273433,405.267573 362.210938,406.216797 C363.148442,407.16602 363.617188,408.62499 363.617188,410.59375 L363.617188,412.580078 C363.617188,415.169935 362.750009,416.874996 361.015625,417.695312 C362.773446,418.433597 363.652344,420.220689 363.652344,423.056641 L363.652344,426.941406 L363.652344,427.099609 C363.652344,428.388678 363.792967,429.355466 364.074219,430 L360.048828,430 C359.814452,429.285153 359.691406,428.253913 359.679688,426.90625 L359.679688,422.951172 C359.679688,421.802729 359.477541,420.979495 359.073242,420.481445 C358.668943,419.983396 358.00977,419.734375 357.095703,419.734375 L355.724609,419.734375 L355.724609,430 L351.769531,430 Z M355.724609,416.148438 L357.271484,416.148438 C358.068363,416.148438 358.663084,415.943361 359.055664,415.533203 C359.448244,415.123045 359.644531,414.437505 359.644531,413.476562 L359.644531,410.998047 C359.65625,409.263663 358.988288,408.396484 357.640625,408.396484 L355.724609,408.396484 L355.724609,416.148438 Z" id="GRUNDHOEFER" fill="#BB444A" sketch:type="MSShapeGroup"></path>
        </g>
    </g>
</svg>